<svg xmlns="http://www.w3.org/2000/svg" xmlns:xlink="http://www.w3.org/1999/xlink" x="0" y="0" viewBox="0 0 150 150" xml:space="preserve"><style type="text/css">.st0{display:none}.st9{clip-path:url(#SVGID_2_)}.st55{fill:#009bac}.st170,.st81{fill:none;stroke:#000;stroke-width:1.5;stroke-miterlimit:10}.st170{fill:#fff}</style>	<g id="Ebene_3"><g><defs><circle id="SVGID_31_" cx="98.307" cy="40.387" r="9.915"></circle></defs><clipPath id="SVGID_2_"><use xlink:href="#SVGID_31_"></use></clipPath><g class="st9"><path class="st170" d="M98.954,50.3036c-1.7436,0-7.196-2.9875-7.196-6.8483v-3.9933c0-3.8608,3.1298-6.9906,6.9906-6.9906h0 c3.8608,0,6.9906,3.1298,6.9906,6.9906v3.9933C105.7392,47.3162,100.5044,50.3036,98.954,50.3036z"></path><circle cx="96.283" cy="40.566" r=".821"></circle><circle cx="101.052" cy="40.566" r=".821"></circle><path class="st170" d="M97.8113,46.4359c1.7988,0.2333,3.6949-0.7028,4.6034-2.2728"></path></g><path d="M101.1226,34.8373 c0.5785,0.0781,1.1781-0.0044,1.7019-0.2639c0.4292,0.6384,0.8717,1.2908,1.4964,1.7399c0.4044,0.2908,0.9004,0.4521,1.359,0.6364 c-0.7227,1.2283-0.3347,2.9853,0.838,3.795c0.1581,0.1092,1.2396-2.1552,1.3165-2.367c0.3226-0.8888,0.5016-1.8299,0.531-2.7749 c0.0302-0.9707-0.1511-1.8588-0.3678-2.796c-0.2088-0.9029-0.1443-1.753-0.8197-2.5029 c-0.4265-0.4736-1.1029-0.5686-1.6715-0.8315c-1.7091-0.7904-3.5406-1.2709-5.4246-1.3622 c-2.2959-0.1113-4.5995,0.3379-6.7518,1.1449c-1.4794,0.5547-2.9633,1.3373-3.8193,2.6653 c-0.8298,1.2872-0.7238,2.7944-0.643,4.257c0.0869,1.5732,0.3307,3.1617,1.006,4.5992c0.141,0.3,0.3058,0.5993,0.5599,0.8121 c0.2541,0.2129,0.6161,0.3245,0.9254,0.2052c0.3936-0.1517,0.5791-0.6299,0.5294-1.0487c-0.0498-0.4188-0.2799-0.7915-0.507-1.147 c0.5253-0.1295,0.9485-0.6015,1.0201-1.1379c0.0716-0.5363-0.2129-1.1028-0.6858-1.3656 c1.7995-0.6297,3.4035-1.2556,4.5408-2.8976c0.9827,0.4943,2.2296,0.4145,3.1413-0.2009 C99.856,34.462,100.476,34.75,101.1226,34.8373z" clip-path="url(#SVGID_2_)" fill="#FFFFFF" stroke="#000000" stroke-width="1.5" stroke-miterlimit="10"></path></g><path class="st55" d="M44.2978,142.5824c-0.5327,0.7415,0.2247,1.7349,1.0705,1.391c19.7094-8.0126,46.154-35.2657,26.6386-55.9615 c-10.2067-10.8241-29.6813-8.2728-39.6973,1.5198c-5.4962,5.3736-8.7,12.9936-8.8094,20.6695 c-0.0184,1.292,1.4497,2.0562,2.5286,1.3452c2.4771-1.6324,5.1462-2.9476,8.0632-3.427c3.8857-0.6385,8.0618,0.0186,11.3026,2.2556 c5.5292,3.8168,7.2856,11.5068,5.8613,18.0727C50.1329,133.6236,47.4103,138.2496,44.2978,142.5824z"></path><path class="st81" d="M118.2138,55.2461c10.5098-14.8503,10.216-43.438,3.6222-48.1045 c-6.5938-4.6666-33.9562,4.9933-44.1618,19.4139C69.3272,38.3496,43.0528,75.475,43.0528,75.475l40.5396,28.6907 C83.5924,104.1657,111.6578,64.5096,118.2138,55.2461z"></path><polyline class="st81" points="43.0528,75.475 28.8711,65.4384 47.0351,39.7729 71.4981,35.586"></polyline><polyline class="st81" points="83.783,104.3006 97.9647,114.3372 116.1286,88.6717 111.9417,64.2087"></polyline><circle class="st81" cx="98.307" cy="40.387" r="9.915"></circle></g></svg>
