<svg xmlns="http://www.w3.org/2000/svg" viewBox="0 0 500 500"><path d="M357.113 355.654c-1.903 15.25 3.562 36.645-6.078 49.303-8.88 11.658-19.065 19.962-32.306 24.024-24.84 7.622-52.109 8.912-75.919-1.969-27.513-12.573-47.093-39.456-64.853-65.716-33.415-49.404-64.871-100.517-91.87-154.437-9.794-19.56-19.273-41.113-16.486-63.22 2.724-21.596 16.783-39.467 32.35-53.021 29.618-25.792 66.336-40.51 103.676-47.061s75.468-5.3 113.143-1.749c34.463 3.248 70.716 9.277 97.62 33.13 24.617 21.824 38.13 56.985 37.927 91.707s-13.39 68.627-34.016 94.964c-11.779 15.04-25.841 27.736-38.022 42.386-12.18 14.65-22.715 32.013-25.166 51.66z" fill="#fc0" opacity=".09"/><path d="M389.232 192.803H260.568a5.832 5.832 0 01-5.833-5.832V99.016a5.832 5.832 0 015.833-5.833h128.664a5.832 5.832 0 015.832 5.833v87.955a5.832 5.832 0 01-5.832 5.832z" fill="#fff"/><path d="M314.126 439.323h56.656v2.76h-56.656zM146.398 439.323h56.657v2.76h-56.657z" fill="#e6e6e6"/><path d="M192.339 171.9h90.273v64.087H192.34z" fill="#f2f2f2" stroke="#000" stroke-miterlimit="10" stroke-width="4"/><path d="M192.339 229.59h92.777v6.397h-92.777z" fill="#4d4d4d"/><path d="M335.04 247.93h14.827v191.813h-14.826zM168.124 247.93h13.205v191.813h-13.205z" fill="#e6e6e6"/><path d="M400.064 248.509H104.297a2.891 2.891 0 01-2.892-2.892v-6.738a2.891 2.891 0 012.892-2.892h295.767a2.891 2.891 0 012.891 2.892v6.738a2.891 2.891 0 01-2.89 2.892z" fill="#333"/><path d="M291.906 217.262h14.56v18.725h-14.56z" fill="#fff"/><path d="M309.416 230.313h-4.422a1.628 1.628 0 01-1.627-1.628v-4.421c0-.899.729-1.628 1.627-1.628h4.422c.9 0 1.628.729 1.628 1.628v4.421c0 .9-.729 1.628-1.628 1.628z" fill="none" stroke="#fff" stroke-miterlimit="10"/><path d="M233.946 368.409s30.771 49.69 33.322 54.154l18.115-7.354s-37.228-98.395-46.793-107.96l-39.537 3.096z" fill="#008590"/><path d="M186.737 310.2h56.9v9.962h-56.9z" fill="#f59c00"/><path d="M188.324 94.242c5.658 12.482 6.728 26.984 2.965 40.162-.408 1.428-.897 2.887-1.894 3.987-1.728 1.905-4.661 2.302-7.148 1.647-2.487-.656-8.374-3.354-10.465-4.852l-1.746 14.11-20.62-.522c2.293-7.282 3.383-12.92 3.968-20.532z" fill="#ffd0d1"/><path d="M104.036 267.075c-1.399 11.188-9.365 30.78-.785 39.865 6.432 6.811 13.871 3.746 21.829 3.497 20.406-.637 100.147-.014 100.147-.014s-22.986 51.03-24.262 103.957l16.58 5.102s30.61-95.653 36.35-112.233c5.738-16.58.637-21.681-13.392-24.232s-70.785-15.942-70.785-15.942h-65.682z" fill="#009bac"/><path d="M169.718 267.075l24.233-80.349 15.783 30.609c-.167-.324-17.663-.475-21.768 1.159-3.962 1.576-7.457 5.096-7.69 9.354-.137 2.488.897 5.016 2.738 6.696 2.78 2.536 7.464 2.705 11.073 2.867 3.645.165 7.299.138 10.946.066 6.544-.13 13.086-.443 19.618-.859.767-.048 1.534-.098 2.3-.152 0 0 18.175-3.348 10.523-24.392-7.653-21.044-23.97-43.922-30.029-56.435-4.716-9.738-13.494-10.044-34.06-10.044h-41.131c-11.478 0-16.74 2.392-27.262 17.696s-22.957 38.261-21.522 46.392 10.196 11.956 15.86 11.956c0 0-2.468 17.696-3.425 26.305s-5.26 13.87 8.13 19.13c13.392 5.262 65.683 0 65.683 0z" fill="#dd004e"/><path d="M99.33 221.64l13.793-38.74s1.572-.386 2.708-1.267-12.845 35.56-12.845 35.56zM193.95 186.726l-7.213-14.826-.81.18 6.297 20.372z" fill="#dd004e"/><path d="M186.629 81.462c4.366 3.51 6.263 9.801 4.566 15.14-.564 1.772-1.517 3.467-2.971 4.625-1.204.96-2.475 1.24-3.962 1.373-1.574.14-1.541.167-2.848 1.289-.582.5-6.916 3.79-6.897 3.56-.382 4.774-5.447 8.608-10.145 7.68-.196 2.602-.4 5.245-1.303 7.694-.903 2.449-2.613 4.723-5.034 5.698s-3.257.842-5.25-.844c-6.818-5.767-11.737-13.43-10.903-22.468.768-8.337 4.77-16.42 11.205-21.825 8.731-7.336 31.034-13.25 36.25.944 1.22 3.318.9 7.168-.85 10.24-1.616 2.833-3.375 5.57-5.5 7.815" fill="#8c6239"/><path d="M172.154 107.164c-.312-1.652-2.685-2.16-4.078-1.22-1.393.942-1.954 2.707-2.228 4.366a22.077 22.077 0 00.262 8.525c.456 1.982 1.26 4.003 2.87 5.248s4.192 1.394 5.538-.131M191.174 110.356c-5.67-.646-13.885-2.218-19.392-3.71" fill="none" stroke="#000" stroke-miterlimit="10"/><path d="M161.637 277.118H72.922c-4.794 0-8.68-6.895-8.68-15.4l-2.897-34.96c0-8.506 3.887-15.401 8.68-15.401h88.716c4.794 0 8.68 6.895 8.68 15.4l2.897 34.96c0 8.506-3.887 15.401-8.68 15.401zM83.357 310.2h103.38v9.962H83.357z" fill="#fc0"/><path d="M186.737 264.635h41.416v12.483h-41.416zM131.454 320.162h11v125.784h-11zM101.502 445.946h70.905v5.739h-70.905z" fill="#333"/><path d="M108.722 451.685v6.696M164.164 451.685v6.696" fill="none" stroke="#000" stroke-miterlimit="10"/><circle cx="108.656" cy="458.381" fill="#333" r="4.783"/><circle cx="164.164" cy="458.381" fill="#333" r="4.783"/><path d="M237.633 185.225h31.696M237.633 192.803h31.696M237.633 200.381h31.696" fill="none" stroke="#b3b3b3" stroke-miterlimit="10" stroke-width="3"/><path d="M186.737 272.356h7.356V310.2h-7.356z" fill="#333"/><path d="M178.633 129.938l-7.87-16.255c-.71-1.465-1.426-2.953-1.71-4.555s-.08-3.363.91-4.655c1.716-2.239 5.203-2.31 7.732-1.059 0-.3-.063-1.363-.063-1.664 0-2.685-1.433-6.092.74-8.26 1.252-1.249 3.347-1.763 4.967-1.053h5.407c-2.892-5.452-6.958-10.637-12.316-13.7-5.384-3.078-12.02-3.884-17.984-2.185s-11.178 5.882-14.132 11.335c-1.312-.99-3.512-.175-4.604 1.054s-1.48 2.917-1.751 4.54c-2.095 12.53.67 25.812 7.592 36.466l33.082-.009z" fill="#8c6239"/><circle cx="174.24" cy="116.434" fill="#76b82a" r="10.959"/><path d="M172.921 114.257s-2.272-31.012-7.368-35.058c-1.3-1.033-2.914-1.57-4.557-1.705-3.144-.259-6.36.808-9.007 2.454-.772.48-3.969 2.816-3.969 2.816s-.8-.791-.977-1.328a5.792 5.792 0 01.267-4.286c.812-1.679 2.173-2.372 3.811-2.992 1.779-.673 3.545-1.258 5.419-1.616 3.65-.699 7.462-.759 11.123-.095 2.799.508 4.227 2.072 5.243 4.691 1.503 3.872 1.971 8.217 2.51 12.302 1.09 8.244 1.808 16.538 2.56 24.817" fill="#379e32"/><path d="M110.274 248.509h3.892l9.5 61.691h-3.892z" fill="#333"/><path d="M281.677 416.713l7.898 20.321-10.614 2.902-7.873-18.924z" fill="#ffd0d1"/><path d="M278.56 438.974l-2.896-6.964 11.114-2.171 2.353 6.153-5.839 3.75z" fill="#a4d8e0"/><path d="M277.187 439.204c1.472 5.499-.092 13.457-.88 19.224h45.44c-1.168-7.51-7.633-7.06-12.421-9.816-6.153-3.54-14.974-8.125-20.298-12.985-5.759 2.797-5.65 2.523-11.841 3.577z" fill="#1a1a1a"/><path d="M208.543 439.743l5.744-21.264-12.182-3.748-3.052 25.972z" fill="#ffd0d1"/><path d="M199.053 440.702l1.276-10.863 10.645.905-2.431 8.998z" fill="#a4d8e0"/><path d="M198.19 440.841s-2.616 7.282-3.99 10.894c-1.202 3.156-.932 5.187-.865 8.548 2.255-.175 44.6 0 44.69 0-2.409-5.23-8.474-8.51-13.449-10.676s-16.033-10.14-16.033-10.14z" fill="#1a1a1a"/><g fill="none" stroke-miterlimit="10"><path d="M254.736 207.412h13.999v11.685h-14z" stroke="#b3b3b3" stroke-width="3"/><path d="M271.647 113.02h34.82M285.116 121.853h73.393M290.813 142.95c-.441-.108-.878-.29-1.331-.29h-14.34M275.142 151.798h20.28M276.49 159.064h23.013M312.38 142.993h9.432M313.702 150.697h15.633M314.803 171.9h14.532M348.71 141.23h14.533M350.913 150.697h16.954M352.013 161.266h15.854" opacity=".52" stroke="#fc0" stroke-width="4"/></g><path d="M191.812 115.266a12.13 12.13 0 004.062 5.574 5.37 5.37 0 01-4.013 2.928" fill="#ffd0d1"/><ellipse cx="193.072" cy="111.64" fill="none" rx="1.696" ry="6.165" stroke="#000" stroke-miterlimit="10"/><path d="M169.838 131.636c2.863 4.403 7.699 7.469 12.902 8.181" fill="#ffa9ab"/><path d="M297.682 226.475l-.51-.51-1.24-1.24-.51.51 1.24 1.24-1.24 1.24.51.51 1.24-1.24z" fill="#009bac"/><path d="M300.014 224.724l-.51.51 1.24 1.24-1.24 1.24.51.511 1.24-1.24.51-.51z" fill="#ffce00"/><path d="M303.805 226.475l-.51-.51-1.24-1.24-.51.51 1.24 1.24-1.24 1.24.51.51 1.24-1.24z" fill="#78b72c"/><path d="M299.723 226.475l-1.75-1.75-.51.51 1.24 1.24-1.24 1.24.51.51 1.24-1.24z" fill="#dd054f"/><script xmlns=""/></svg>