<svg xmlns="http://www.w3.org/2000/svg" viewBox="0 0 300 200"><path d="m163.7 150.7 7-2.2-15.3-9.9 3.9 17.9z" fill="#dd004e"/><path d="m115.8 13.6h46v72.6h-46z" fill="#dd004e"/><path d="m119.6 64.7 11-14.2 7.4 7.8 13-13.6 7 7.5v30.2h-38.4v-17.5" fill="#fff"/><circle cx="135.4" cy="38.5" fill="#fff" r="4.9"/><path d="m45.7 43.3h46v72.6h-46z" fill="#dd004e"/><path d="m228.8 100.5h5.5v61.4h-5.5z" fill="none" stroke="#000" stroke-miterlimit="10" stroke-width="1.5"/><path d="m234.5 100.5-2.3-6.8c-.2-.6-1-.6-1.2 0l-2.3 6.8z" fill="none" stroke="#000" stroke-linejoin="bevel" stroke-miterlimit="10" stroke-width="1.5"/><path d="m33.3 69.4h145.8v103.3h-145.8z" fill="none" stroke="#000" stroke-miterlimit="10" stroke-width="1.5"/><path d="m27 63.6h158.5v109.2h-158.5z" fill="none" stroke="#000" stroke-miterlimit="10" stroke-width="1.5"/><path d="m54.6 86.2h28.3v10.1h-28.3z" fill="#fff"/><g stroke="#000" stroke-miterlimit="10" stroke-width="1.5"><path d="m115.8 101.9h46.1" fill="none"/><path d="m45.7 130.2h94.6" fill="none"/><circle cx="155" cy="137.1" fill="none" r="6.9"/><path d="m45.7 137.1h94.6" fill="none"/><path d="m45.7 143.9h94.6" fill="none"/><path d="m198.9 178.8h-185.4v-7.9h83.5l2.1 2h14.5l2.2-2h83.1z" fill="#fff"/><path d="m207.9 80.3h9.8v81.6h-9.8z" fill="none"/><path d="m212.8 156.7h-5.4" fill="none"/><path d="m211.3 150.8h-3.4" fill="none"/><path d="m211.3 145.5h-3.4" fill="none"/><path d="m211.3 140.2h-3.4" fill="none"/><path d="m211.3 124.5h-3.4" fill="none"/><path d="m211.3 119.2h-3.4" fill="none"/><path d="m211.3 113.9h-3.4" fill="none"/><path d="m211.3 98.2h-3.4" fill="none"/><path d="m211.3 92.9h-3.4" fill="none"/><path d="m211.3 87.6h-3.4" fill="none"/><path d="m212.8 131.7h-5.4" fill="none"/><path d="m212.8 106.7h-5.4" fill="none"/><path d="m39.4 162.2h128.7" fill="none" stroke-dasharray="5"/></g><script xmlns=""/></svg>