<svg xmlns="http://www.w3.org/2000/svg" viewBox="0 0 300 200"><path d="m197.8 127.3-6.6-6.6-16.1-16-6.6 6.6 16.1 16-16.1 16.1 6.6 6.6 16.1-16z" fill="#009bac"/><path d="m94.4 127.3 6.6-6.6 16-16 6.7 6.6-16.1 16 16.1 16.1-6.7 6.6-16-16z" fill="#009bac"/><path d="m129.2 163.3 44.4-71.9h-12.5l-44.4 71.9z" fill="#009bac"/><g fill="none" stroke="#000" stroke-miterlimit="10" stroke-width="1.5"><circle cx="51.8" cy="132.1" r="24.4"/><path d="m90.8 137.7v-11.1h-9c-.8-4.3-2.5-8.3-4.9-11.7l6.3-6.3-7.9-7.9-6.3 6.3c-3.5-2.4-7.4-4.1-11.7-4.9v-9h-11.1v9c-4.3.8-8.3 2.5-11.7 4.9l-6.3-6.3-7.9 7.9 6.3 6.3c-2.4 3.5-4.1 7.4-4.9 11.7h-9v11.1h9c.8 4.3 2.5 8.3 4.9 11.7l-6.3 6.3 7.9 7.9 6.3-6.3c3.5 2.4 7.4 4.1 11.7 4.9v9h11.1v-9c4.3-.8 8.3-2.5 11.7-4.9l6.3 6.3 7.9-7.9-6.3-6.3c2.4-3.5 4.1-7.4 4.9-11.7z"/><circle cx="99.7" cy="60.6" r="30"/><path d="m147.6 67.5v-13.7h-11c-1-5.3-3-10.2-6-14.4l7.8-7.8-9.7-9.7-7.8 7.8c-4.3-2.9-9.1-5-14.4-6v-11h-13.7v11c-5.3 1-10.2 3-14.4 6l-7.8-7.8-9.6 9.7 7.8 7.8c-2.9 4.3-5 9.1-6 14.4h-11v13.7h11c1 5.3 3 10.2 6 14.4l-7.8 7.8 9.7 9.7 7.8-7.8c4.3 2.9 9.1 5 14.4 6v11h13.7v-11c5.3-1 10.2-3 14.4-6l7.8 7.8 9.7-9.7-7.8-7.8c2.9-4.3 5-9.1 6-14.4-.1 0 10.9 0 10.9 0z"/><circle cx="187" cy="121.1" r="37.4"/><path d="m246.8 129.6v-17.1h-13.8c-1.2-6.6-3.8-12.7-7.4-18l9.7-9.7-12.1-12.1-9.7 9.7c-5.3-3.6-11.4-6.2-18-7.4v-13.7h-17.1v13.7c-6.6 1.2-12.7 3.8-18 7.4l-9.7-9.7-12.1 12.1 9.7 9.7c-3.6 5.3-6.2 11.4-7.4 18h-13.8v17.1h13.9c1.2 6.6 3.8 12.7 7.4 18l-9.7 9.7 12.1 12.1 9.7-9.7c5.3 3.6 11.4 6.2 18 7.4v13.8h17.1v-13.8c6.6-1.2 12.7-3.8 18-7.4l9.7 9.7 12.1-12.1-9.7-9.7c3.6-5.3 6.2-11.4 7.4-18z"/><path d="m112.7 54.5c0-1.9-1.7-5.3-1.7-5.3 1.6-3.9-.4-7.1-.4-7.1-4.2.2-5.8 2.5-5.8 2.5-1.5-.5-3.2-.8-5-.8-1.7 0-3.3.3-4.7.8-.4-.4-2.1-2.2-5.7-2.4 0 0-1.9 3-.6 6.8-1.2 1.6-1.9 3.6-1.9 5.6 0 4.9 3.9 9 9.2 10.3-1.6 1.1-2.6 2.8-2.6 4.8v.1.9h-3c-.7 0-1.3-.4-1.6-1l-1.1-2.4c-.5-1.1-1.7-1.9-3-1.9h-2c-1 0-1.8.8-1.8 1.8s.8 1.8 1.8 1.8h.8c.7 0 1.3.4 1.6 1l1.5 2.7c.7 1.4 2.1 2.3 3.7 2.3h3.1v4.4h13.2v-9.4-.1c0-2-1.1-3.8-2.8-4.9 5.1-1.7 8.8-5.8 8.8-10.5z"/></g><script xmlns=""/></svg>