<svg xmlns="http://www.w3.org/2000/svg" viewBox="0 0 300 200"><path d="m247.6 46.2v69.5c0 3.3-2.7 6-6 6h-54c-3.3 0-6-2.7-6-6v-48.9l-11.4-13.6h11.4v-6.9c0-3.3 2.7-6 6-6h54c3.3-.1 6 2.6 6 5.9z" fill="#fc0"/><path d="m12.4 145.9v-69.4c0-3.3 2.7-6 6-6h54c3.3 0 6 2.7 6 6v48.9l11.4 13.6h-11.4v6.9c0 3.3-2.7 6-6 6h-54c-3.3 0-6-2.7-6-6z" fill="#fc0"/><path d="m90.2 61.5c-3.7 0-15.1-6.3-15.1-14.4v-8.4c0-8.1 6.6-14.7 14.7-14.7 8.1 0 14.7 6.6 14.7 14.7v8.4c0 8.2-11 14.4-14.3 14.4z" fill="none" stroke="#000" stroke-miterlimit="10" stroke-width="1.5"/><circle cx="87.9" cy="43.8" r="1.7"/><circle cx="97.9" cy="43.8" r="1.7"/><path d="m69.7 86.8c0-11.1 9-20.1 20.1-20.1s20.1 9 20.1 20.1z" fill="none" stroke="#000" stroke-miterlimit="10" stroke-width="1.5"/><path d="m195.7 29.6v49.9c0 4-3.3 7.3-7.3 7.3h-45.4c-4 0-7.3-3.3-7.3-7.3v-24.8l-14-16.7h14v-8.5c0-4 3.3-7.3 7.3-7.3h45.4c4 .1 7.3 3.4 7.3 7.4z" fill="none" stroke="#000" stroke-miterlimit="10" stroke-width="1.5"/><path d="m71.8 30.5c-.6-.5-2.5-2.3-2.5-3.9s.9-3.3 2.4-4c.6-3.2 4.8-5.2 7.7-3.7 1.4-3.6 6.4-5.3 9.6-3.2.9-2 3.2-3.3 5.4-2.9s3.9 2.5 3.9 4.7c1.4-.8 3.5-.5 4.6.7s1.2 3.3.2 4.6c1.7.4 3 1.9 3.2 3.6s-.8 3.6-2.3 4.3c-1.2.6-2.6.5-3.9 0-.8-.3-1.5-.7-2.3-1-1.7-.5-3.5 0-5.2.2s-3.8-.1-4.7-1.6c-1.4 2.7-4.6 4.3-7.6 3.9 1 3.1-3.1 4.6-5.5 4.3-1.2-.1-2.5-.9-3.2-2-.3-.2-1.1-2.2.2-4z" fill="#fff" stroke="#000" stroke-miterlimit="10" stroke-width="1.5"/><path d="m166.5 146c-3.7 0-12.8-6.3-12.8-14.4v-8.4c0-8.1 6.6-14.7 14.7-14.7 8.1 0 14.7 6.6 14.7 14.7v8.4c0 8.1-13.3 14.4-16.6 14.4z" fill="none" stroke="#000" stroke-miterlimit="10" stroke-width="1.5"/><circle cx="160.4" cy="121.7" r="1.7"/><circle cx="170.4" cy="121.7" r="1.7"/><g stroke="#000" stroke-miterlimit="10" stroke-width="1.5"><path d="m148.3 171.3c0-11.1 9-20.1 20.1-20.1s20.1 9 20.1 20.1z" fill="none"/><path d="m67.5 114v49.9c0 4 3.3 7.3 7.3 7.3h45.4c4 0 7.3-3.3 7.3-7.3v-24.8l14-16.7h-14v-8.4c0-4-3.3-7.3-7.3-7.3h-45.4c-4.1 0-7.3 3.3-7.3 7.3z" fill="none"/><path d="m162.4 107.8c4.3 2.6 8.9 4.6 13.7 6 0 .1-.6.4-.7.5v28.5c-.3 1.7-.9 2.8-1.9 4.2 2.8.1 5.6-.7 7.9-2 .6-.3 1.2-.7 1.9-.7 1.6.1 2.2 2.2 3.7 2.8-.3-2.1-.1-4.3-.1-6.5 1.1.6 2.2 1.2 3.2 1.9.1-5.8.2-11.5.4-17.3.1-4.6-1-8-2.9-12.2-2.3-4.9-8-8.6-13.4-9.3-5.8-.8-12.6 1.8-16 6.6-.2.3-1.7 3.2-1.7 3.2 3 .1 7.4-1.5 9.8-3.3" fill="#fff"/><path d="m149.4 36.3h35.9" fill="none"/><path d="m149.4 47.9h35.9" fill="none"/><path d="m161.3 60.4c.9-1.5 2.3-2.6 4-3s3.5.1 4.7 1.3 1.6 3.2.8 4.7c-.8 1.6-2.6 2.4-3.9 3.6-1.9 1.8-2.8 4.7-2.1 7.2" fill="none"/><path d="m164.8 79.6c.1-.7.2-1.4.3-2.1" fill="none"/><path d="m79.6 151.9h33.2" fill="none"/><path d="m79.6 159.9h33.2" fill="none"/><path d="m80.1 133.9c6.3-.1 12.6-.3 18.6-2s11.8-5.1 15.1-10.5" fill="none"/><path d="m109.3 121.2c1.8-.4 3.6-.8 5.3-1.2l2.4 6" fill="none"/><path d="m109.5 135.9v-5.5" fill="none"/><path d="m104.3 136.3v-3.3" fill="none"/><path d="m99.3 136.4v-1.8" fill="none"/></g><script xmlns=""/></svg>