<svg xmlns="http://www.w3.org/2000/svg" viewBox="0 0 500 500"><path d="M93.46 198.33c15.99-20.21 40.62-30.57 65.08-35.23s49.51-4.39 74.19-7.5c46.21-5.82 91.05-23.5 137.6-23.77 14.57-.08 30.19 2 41.23 12.12 11.92 10.92 15.87 29.32 13.52 45.86s-10.08 31.6-18.37 45.82-17.36 28.12-22.87 43.79a107.04 107.04 0 00-4.29 54.04c1.64 9.1 4.47 18.45 2.29 27.41-3.19 13.13-16.25 21-28.86 23.12-27.24 4.56-53.47-10.47-79.62-19.75a198.26 198.26 0 00-94.5-9.4c-17.46 2.53-36.67 7.04-51.6-2.9-13.46-8.95-18.7-26.68-22.95-42.93-5.74-22-11.23-44.1-17.25-66-4.75-17.27-3.2-29.4 6.4-44.68z" fill="#d0e3b0"/><path d="M181.14 337.75H26.42a2.84 2.84 0 01-2.84-2.84V217.07a2.84 2.84 0 012.84-2.84h154.72a2.84 2.84 0 012.84 2.84v117.84a2.84 2.84 0 01-2.84 2.84z" fill="#f2f2f2"/><path d="M23.58 222.57h160.4" fill="none" stroke="#fff" stroke-miterlimit="10"/><path d="M323.41 444.16H168.7a2.84 2.84 0 01-2.84-2.84V323.48a2.84 2.84 0 012.84-2.84H323.4a2.84 2.84 0 012.84 2.84v117.84a2.84 2.84 0 01-2.84 2.84z" fill="#f2f2f2"/><path d="M165.86 328.98h160.4" fill="none" stroke="#fff" stroke-miterlimit="10"/><path d="M473.58 333.3H318.86a2.84 2.84 0 01-2.84-2.85V212.62a2.84 2.84 0 012.84-2.84h154.72a2.84 2.84 0 012.84 2.84v117.83a2.84 2.84 0 01-2.84 2.84z" fill="#f2f2f2"/><path d="M316.02 218.12h160.4" fill="none" stroke="#fff" stroke-miterlimit="10"/><path d="M117.46 252.65c1.46-2.8 2.44-5.89 2.4-9.04s-1.16-6.35-3.44-8.53c-1.9-1.81-4.44-2.81-7.03-3.26s-5.22-.37-7.84-.3c-3.82-.46-7.53-.81-11.17.44s-6.93 3.9-8.28 7.52c-1.03 2.77-.9 6-2.52 8.48-1.54 2.38-4.42 3.65-5.94 6.05-1.77 2.79-1.3 6.48.02 9.52s3.36 5.7 4.74 8.7c.97 2.1 1.57 4.67.4 6.69-1.06 1.85-3.26 2.65-4.94 3.97a9.33 9.33 0 00-3.13 9.63 723.21 723.21 0 0153.59-4.49c.91-3.14.5-6.85-.94-9.79s-4.01-5.3-7.06-6.5" fill="#efc18b"/><path d="M111.85 242.85c2.72.96 3.61 4.32 3.98 7.18a96.75 96.75 0 01.19 22.57c-.17 1.6-.57 3.45-2.04 4.11-1 .46-2.16.17-3.22-.13-5.35-1.48-11.19-3.32-14.11-8.04" fill="#ffd0d1"/><path d="M112.2 242.45c-4.02 6.74-10.11 14.03-17.96 14.03v25.03h11.08v-6.57" fill="#ffd0d1"/><path d="M94.24 281.51s-7 2.74-14.34 5.52c-7.33 2.79-10.11 2.28-13.9 13.4-3.8 11.14-7.85 24.67-7.72 30.49.13 5.81-.76 6.2 2.4 6.2h34.27v-7.34s-20.86-3.42-24.28-2.91l5.94-14.54 4.43 22.63 34.46 1.31s.95-4.47 2.6-8.26c1.64-3.8 5.3-8.22 5.3-8.22s3.3 16.31 6.46 17.32l16.56.64 8.6-8.22s-14.67-1.14-15.93-3.04-5.57-23.27-7.34-29.34c-1.77-6.07-6.45-8.47-12.64-10.12-6.2-1.64-13.79-5.52-13.79-5.52z" fill="#009bac"/><path d="M94.9 260.76c-.57-.57-.89-.92-1.37-1.56a5 5 0 00-4.04-2.1 3.9 3.9 0 00-3.58 2.6c-.6 1.9.64 4 2.36 5s3.81 1.1 5.8 1.03c.8-.03 1.14-.08 1.8-.56" fill="#ffd0d1"/><path d="M111.77 242.9a9.28 9.28 0 00-2.3-7.43" fill="none" stroke="#d6aa7f" stroke-miterlimit="10"/><path d="M121.81 321.13a8.17 8.17 0 003.32-4.84c.52-1.9.45-3.93.18-5.91-.27-2-.74-4-1.08-6.03a98.53 98.53 0 01-.92-6.1 98.56 98.56 0 011.68 5.94c.5 2 1 3.98 1.3 6.05.28 2.06.3 4.25-.42 6.28-.68 2-2.1 3.85-4.06 4.61zM75.98 313.86a32.27 32.27 0 012.08-5.65 31.9 31.9 0 012.98-5.24 31.9 31.9 0 01-2.08 5.66 32.27 32.27 0 01-2.98 5.23z" fill="#006e79"/><path d="M95.4 330.11c4.82.18 9.6.95 14.35 1.73 1.76.28 3.56.58 5.16 1.37s3 2.15 3.4 3.9H94.97M146.85 336.65l18.24.45s-2.34-3.7-4.08-4.99-4.15-1.9-6.08-.93c-1.18.59-1.89.38-3.11.87" fill="#ffd0d1"/><path d="M113.98 276.71c-1 .46-2.16.17-3.22-.13-5.35-1.48-11.19-3.32-14.11-8.04" fill="#ffa9ab"/><path d="M110.66 260.5c.82 1.1 1.77 2.8 2.9 3.59l-1.77 1.11" fill="none" stroke="#ffa9ab" stroke-miterlimit="10"/><path d="M240.43 443.8a431.3 431.3 0 00-.71-33.42c2.03.21 24.4 11.98 30.5 10.14 4.43-1.35 9.01-4.87 12.75-7.53a87.32 87.32 0 0020.83-21.01l-8.7-8.9s-16.67 19.64-26.98 18.92c-4.7-.33-8.7-2.76-12.7-4.97-4.33-2.4-8.56-4.9-13.06-6.95-8.8-4.02-18.32-6.5-28.05-5.42-2.9.32-5.62 1.07-8.54.92-6.09.97-12.08 2.28-17.76 4.7-3.26 1.38-6.6 3.14-8.44 6.17-1.56 2.56-1.84 5.69-1.95 8.68a98.43 98.43 0 006.67 39.1" fill="#dd004e"/><path d="M198.3 358.68a.62.62 0 01.23-.83" fill="none" stroke="#000" stroke-miterlimit="10"/><path d="M299.23 391.16l14.52-36.98c10.59 4.1 21.3 8.9 31.88 13-5.54 11.77-10.8 24.93-15.48 37.06-11.1-2.07-22.56-5.49-30.92-13.08z" fill="#fff"/><path d="M213.84 373.31a26.26 26.26 0 0011.08 4.48c1.53.24 3.26.31 4.48-.58 1.29-.92 1.6-2.57 1.78-4.07 1.2-10.27.5-21.04-6.35-29.42-5.4-6.63-18.02-11.38-24.93-4.02-2.48 2.63-2.98 6.39-2.93 9.88.12 8.75 6.19 16.2 7.77 24.82.7 3.85 1.08 7.74 1.12 11.63l1-.3 9.35-.05.14-14.44" fill="#ffd0d1"/><path d="M204.88 364.65c.4-.85.8-1.7 1.12-2.6.98-2.68 1.64-5.49 1.94-8.33.25-2.31.12-4.62-.24-6.91-.15-.93-.91-6.82-1.78-7.08a32.78 32.78 0 0011.25 1.33c.96-.06 1.98-.09 2.92-.29 1.15-.24 1-.25 1.32-1.36a13.38 13.38 0 012.37-4.71c-4.56 1.07-9.24-1.28-13.92-1.05-8.79.45-14.69 9.99-14.42 18.13.2 6.22 3.44 13.27 8.25 17.3.27-1.1.17-1.98.6-3.08l.6-1.35z" fill="#b3b3b3"/><path d="M209.6 357.99c-.6-.6-.93-.96-1.43-1.63-.97-1.32-2.56-2.22-4.2-2.18s-3.26 1.13-3.75 2.7c-.6 1.98.68 4.17 2.47 5.2s3.97 1.16 6.04 1.08c.85-.02 1.2-.08 1.88-.57M303.05 380.15l4.2-4.61c.34-.38.7-.84.63-1.34-.08-.5-.6-.84-1.11-.88-4.24-.35-7.78 4.66-8.22 8.42a6.82 6.82 0 00-2.22 2.44l3.98 4.23 2.97-7.56z" fill="#ffd0d1"/><path d="M211.5 369.96a20.4 20.4 0 006.36 5.88c1.75 1.03 3.82 1.66 5.82 2.05s4.45.32 6.05-.95" fill="#ffa9ab"/><path d="M225.3 356.89c1.07 2.2 2.9 4.03 5.12 5.1-1.61 1.25-4 1.99-6 1.58" fill="none" stroke="#ffa9ab" stroke-miterlimit="10"/><path d="M205.34 386.62v-5.43h12.31l-1 5.43s-5.42-1.55-11.31 0z" fill="#dd004e"/><path d="M432.58 262.16l.5-6.19c-2.73-4.07-5.4-7.78-7.65-12.14-.28-.54-.55-1.24-.18-1.73.27-.35.78-.43 1.2-.3s.77.4 1.1.68l4.62 3.75c1.31-5.78 2.52-12.03 3.83-17.82.16-.69.53-1.55 1.24-1.5.8.06.94 1.18.84 1.98l-1.44 11.67c3.61.64 7.3 4.01 7.8 7.64a8.97 8.97 0 01-4.84 9.06c.1 2.78.3 5.8.4 8.58" fill="#ffd0d1"/><path d="M389.61 325.48c.05-8.16-.02-16 .83-24.1 7.44.42 14.95 1.86 22.39 2.29 5.25.3 13.95 2.23 18.27-1.75 1.71-1.57 2.44-4.9 3.13-7.1 2.96-9.47 6.03-19.37 8.07-29.07-3.7-1.54-7.64-3.35-11.52-4.34a225.9 225.9 0 01-10.48 29.27 215.98 215.98 0 00-46.42-7.56c-3.05-.16-6.1.39-9.22.08-3.07-.31-6.1-.68-9.17-.8-6-.25-11.1 1.32-15.69 5.4-4.8 4.27-8.51 10.08-10.97 15.93-.72 1.73-9.85 19.78-10.44 19.49a186.02 186.02 0 01-15.25-8.16c-2.44 2.74-4.91 5.36-7.36 8.1 6.63 6.28 14.45 11.23 22.6 15.35 2.6 1.32 5.68 2.53 8.34 1.33 2.4-1.08 3.6-3.74 4.58-6.18 3.14-7.72 6.8-13.84 9.94-21.56a86.14 86.14 0 002.2 21.07h45.68c.53-2.53.48-5.1.5-7.7z" fill="#76b82a"/><path d="M368.34 270.63a38.47 38.47 0 01-14.2 7.16c-1.23.33-2.67.56-3.7-.2-.83-.63-1.14-1.73-1.35-2.75-2.1-9.9-.9-20.58 3.24-29.8.41-.91 1.4-1.6 2.3-1.93a6.88 6.88 0 013.51-.23c5.13.86 7.35 4.92 8.83 9.47 1.48 4.57 2.59 8.97 4.08 13.55v17.35c-1.39 2.35-2.66 6.16-5.84 6.36-2 .13-3.54-1.14-4.22-2.9-.41-1.08-1.43-2.88-1.43-4.06v-10.04" fill="#ffd0d1"/><path d="M354.64 259.23a7.58 7.58 0 01-1.97 3.65c.67.5 1.48.81 2.32.87" fill="none" stroke="#ffa9ab" stroke-miterlimit="10"/><path d="M362.4 249.13c-1.02-2.5-.91-4.59-4-5.4-2.19-.59-4.66-.12-6.84-.15-2.44-.03-5.12-.84-6.34-2.95-1.23-2.12-.54-4.97 1.14-6.74 1.68-1.78 4.14-2.62 6.56-2.92 4.4-.54 8.96.54 12.64 3 3.15 2.1 5.6 5.11 8.67 7.31 2.04 1.46 4.37 2.56 6.07 4.4 2.28 2.47 3.13 6.04 2.74 9.37-.68 5.76-6.4 12.52-12 14.05-1.68-4.85-2.12-11.42-5.35-15.41-1.18-1.46-2.58-2.82-3.29-4.56z"/><path d="M302.16 314.94l-.72-8.02c-.05-.6-.24-1.34-.83-1.43-.6-.08-.99.59-1.17 1.16a12.38 12.38 0 00-.5 4.78c-2.05-4.78-8.03-7.46-13-7.08a5.2 5.2 0 00-3.05 1.02c-1.35 1.16-1.48 3.3-.78 4.93.62 1.44 1.72 2.53 2.82 3.6 1.02.99 1.93 2.07 3.02 3a26.49 26.49 0 007.68 4.63c.47.18.83.1 1.32.25a23.72 23.72 0 005.29-5.64c0-.44-.04-.76-.08-1.2z" fill="#ffd0d1"/><path d="M368.66 269.62a21.65 21.65 0 01-10.37 6.62c-2.4.69-4.34 1.86-6.83 1.66" fill="#ffa9ab"/><path d="M368.66 262.6c1.03-1.32 2.11-2.68 3.61-3.42 1.5-.75 3.55-.67 4.61.62.62.76.8 1.81.6 2.77s-.76 1.8-1.47 2.47a6.52 6.52 0 01-7.13 1.09" fill="#ffd0d1"/><path d="M341.26 312.22c.22-1.21.7-2.28 1.24-3.3.58-1.02 1.21-2 2.12-2.83-.21 1.21-.7 2.28-1.24 3.3a11.2 11.2 0 01-2.12 2.83z" fill="#379e32"/><g fill="none" stroke-miterlimit="10"><path d="M357.65 283.05c.6 1.19.97 2.47 1.45 3.71a9.64 9.64 0 002 3.42 4.36 4.36 0 003.58 1.4M369.81 288.5c1.14-1.05 1.88-2.44 2.59-3.8l.7-1.36" stroke="#379e32"/><path d="M348.99 257.57c-.05-2.36.84-4.7 2.31-6.09.48-.45 1.12-.81 1.67-.51 1.26.69.9 3.47.65 4.63-.28 1.3-1 3.43-2.24 4.15-1.44.84-2.37-1-2.4-2.18zM356.29 259.97c-.05-2.36.84-4.71 2.31-6.09.49-.45 1.12-.81 1.67-.51 1.26.68.9 3.47.65 4.63-.28 1.3-1 3.42-2.24 4.15-1.44.84-2.37-1-2.4-2.18zM352.94 257.37a3.33 3.33 0 013.14.96M360.5 259.47l9.31 1.94" stroke="#b3b3b3"/><path d="M171.07 411.02c-13.02-.68-25.66-6.92-34.11-16.85s-12.62-23.4-11.22-36.36c.24-2.25 1.04-4.94 3.24-5.47 1.77-.43 3.58.9 4.32 2.57.74 1.66.67 3.56.58 5.37-.2 4.54-1.24 10.19-5.62 11.4-3.5.96-6.92-1.69-9.35-4.39a53.3 53.3 0 01-13.22-29.27M267.21 189.32c10.14 6.18 12.67 19.68 12.88 31.54.2 11.47-.85 23.1-4.73 33.9s-10.78 20.73-20.46 26.89c-3.93 2.5-10.02 3.91-12.57 0-1.35-2.05-.99-4.87.24-7s3.19-3.73 5.1-5.28c2.43-1.96 4.92-3.96 7.86-5s6.48-.96 8.91 1c3.75 3.02 3.34 8.81 2.13 13.47a73.52 73.52 0 01-28.84 41.35M298.8 105.9a165.3 165.3 0 0183.52-34.4c7.57-.86 16.24-.81 21.54 4.67 3.6 3.73 4.75 9.14 5.33 14.28 2.1 18.68-1.87 37.83-10.51 54.47a97.5 97.5 0 01-16.65 23.1c-2.05 2.1-16.18 18.05-14.91 6.8.93-8.24 8.83-17.45 15.67-21.49 6.4-3.78 15.38-4.89 20.78.23 3.27 3.1 4.5 7.77 5.1 12.24a65.08 65.08 0 01-9.6 43.5" stroke="#76b82a"/></g><path d="M295.61 189.17H140.9a2.84 2.84 0 01-2.84-2.84V68.49a2.84 2.84 0 012.84-2.84H295.6a2.84 2.84 0 012.84 2.84v117.84a2.84 2.84 0 01-2.84 2.84z" fill="#f2f2f2"/><g fill="none" stroke-miterlimit="10"><path d="M138.06 74h160.4" stroke="#fff"/><g stroke="#fcc577"><path d="M248.72 118.25h-3.25a2.38 2.38 0 01-2.38-2.39v-3.47h8v3.47a2.38 2.38 0 01-2.37 2.39zM258.2 98.37a11.1 11.1 0 10-15.1 10.36v3.66h8v-3.66a11.1 11.1 0 007.1-10.36z"/><path d="M248.15 112.39h-2.13s-1.81-11.9-2.63-12.2-2.74 2.2-2.18 3.12 10.98.62 11.57 0-.95-4-2.29-3.42c-1.33.59-2.34 12.5-2.34 12.5zM232.9 91.63l-4.02-3.14M245.1 82.74l.52-4.19M256.95 85.18l2.1-2.44M264.08 98.34l5.6-1.12M232.02 103.13l-5.05 2.27M260.1 108.54c1.07.86 2.32 1.52 3.65 1.91"/></g></g><path d="M197.47 129.49a40.66 40.66 0 00-7.02 3.46c-3.6 2.3-6.75 5.6-8.07 9.66-1.89 5.84.15 11.59 2.23 17 2.6 6.71 5.2 13.44 8.14 20 .87 1.93 1.8 3.9 3.35 5.34a7.1 7.1 0 006.06 1.58s.3 2.3.52 2.79l49.27-.15c-.32-2.01-3.53-11.14-3.86-13.15 2.03-1.22 4.5-1.4 6.8-1.96s4.75-1.7 5.6-3.93c.59-1.56.25-3.3-.11-4.93a142.65 142.65 0 00-10.49-30.17c-1.37-2.87-2.9-5.77-5.36-7.78-3.31-2.7-7.83-3.4-12.1-3.45-4.3-.05-8.11.3-12.35-.1 1.37 2.56-3 6.16-5.07 7.04a8.16 8.16 0 01-8.36-1.32c-1.26-1.1-2.78-2.51-4.4-1.89-1.76.68-3.08 1.28-4.78 1.96z" fill="#fc0"/><path d="M216.37 124.04l-2.65-19.49c1.14.2 2.26-.06 3.12-.83s1.4-1.85 1.67-2.98c.26-1.1.27-2.28-.14-3.33s-1.3-1.94-2.39-2.21-2.37.18-2.93 1.16l-2.26-7.73-19.58 4.23c.5 2.5 1.05 5.12 1.13 7.66-.48-.2-.98-.35-1.5-.39s-1.09.12-1.41.53c-.46.58-.3 1.42-.1 2.14.24.86.52 1.75 1.08 2.46.67.84 1.6.57 2.22 1.06.72.56.63 1.88.84 2.69.34 1.24.9 2.48 1.41 3.67 1.05 2.4 2.3 4.72 3.76 6.91a4.2 4.2 0 001.67 1.68c1.48.64 3.7-1.56 5.25-1.81.38.91.19 1.94.25 2.9.09 1.28.3 2.54.31 3.82 0 0-1.28.47-1.7.6-1.56.52-2.79.74-4.1 1.17-.11 2.37 4.41 4.84 6.3 5.44 2.8.89 5.88.71 8.66-.24 2.02-.69 3.96-1.83 5.19-3.59s1.6-4.19.56-6.06z" fill="#ffd0d1"/><path d="M213.36 96.36c-.19-.17.8-2.44.89-2.75a6 6 0 00.02-3.6 21.71 21.71 0 00-4.25-8.38c-.56-.7-1.35-1.42-2.23-1.24-.65.14-1.15.73-1.8.75-.97.03-1.55-1.17-2.5-1.38-1.5-.35-2.48 1.9-4.03 1.99-.84.04-1.61-.59-2.45-.5-1.02.12-1.6 1.21-2.47 1.77-.96.62-2.19.55-3.3.81-1.83.43-3.14 3.12-3.17 4.89-.1 6.35 7.5 4.24 11.4 3.76.73-.09 10.99-1.57 10.96-1.69.57 2.13 1.35 4.04 2.93 5.57z" fill="#8c6239"/><path d="M200.52 109.25l-2.89-.02a5.38 5.38 0 001.14-4.15" fill="none" stroke="#ffa9ab" stroke-miterlimit="10"/><path d="M231.55 157.96c1.38-.5 2.73-.56 4.16-.75l4.48-.6c.4-.06.88-.1 1.17.2.2.18.25.46.3.72.21 1.12.4 2.25.55 3.39.05.4.08.86-.2 1.15a1.3 1.3 0 01-.6.28c-2.55.7-5.2.95-7.78.31" fill="#ffd0d1"/><path d="M226.23 160.1l5.42-2.08c.15-.06 1.05.75 1.2.87.4.32.78.66 1.11 1.04.78.9 1.04 1.91 1.13 3.08-.05-.24-1.44.7-1.52.73-.68.38-1.41.66-2.17.85a13.5 13.5 0 00-5.17-4.49zM239.37 144.95c.43 1.4.84 2.79 1.19 4.2.35 1.4.73 2.81 1.04 4.23.34 1.41.63 2.83.94 4.25.29 1.43.57 2.85.83 4.28l.08.45-.42.07-3.83.63c-1.27.2-2.56.37-3.85.52 1.24-.39 2.49-.74 3.74-1.07l1.88-.48c.61-.16 1.27-.33 1.88-.46l-.33.52c-.34-1.41-.65-2.83-.96-4.25-.29-1.42-.59-2.84-.85-4.27-.28-1.43-.5-2.86-.74-4.3a81.4 81.4 0 01-.6-4.32zM248.28 175.7c-3.08.86-6.18 1.61-9.28 2.34a387.16 387.16 0 01-18.74 3.93l-4.71.84c-1.58.25-3.15.53-4.73.75 1.53-.44 3.08-.82 4.63-1.23l4.65-1.11a384.21 384.21 0 0128.18-5.51z" fill="#f59c00"/><path d="M195.43 154.3l4.12 7.67 4.09 7.67-.41-.1c1.7-1.13 3.47-2.02 5.23-2.98a356.6 356.6 0 0110.69-5.43c.92-.45 1.84-.81 2.77-1.2a7.32 7.32 0 013.09-.67c1.1.04 2.12.47 3.02.98.9.52 1.72 1.17 2.45 1.92.73.74 1.36 1.6 1.82 2.54.24.48.43.96.56 1.5.13.56.14 1.13.06 1.66-.34 2.17-1.5 3.95-2.85 5.5a21.33 21.33 0 01-4.8 3.78 75.08 75.08 0 01-22.25 8.96c-1.97.37-4.1.57-6.08-.22a5.64 5.64 0 01-2.44-1.9c-.61-.84-1.04-1.75-1.48-2.65a96.4 96.4 0 01-4.28-11.2c1.38 3.74 2.88 7.45 4.66 11 .45.89.92 1.78 1.5 2.54a5.1 5.1 0 002.25 1.69c1.8.68 3.83.47 5.73.07a78.6 78.6 0 0021.9-9.1 20.4 20.4 0 004.55-3.62c1.24-1.44 2.34-3.16 2.62-4.97.16-.9-.1-1.75-.5-2.62a9.12 9.12 0 00-1.64-2.31 10.56 10.56 0 00-2.25-1.77 5.75 5.75 0 00-2.6-.88c-.9-.06-1.8.23-2.71.6-.92.37-1.85.73-2.73 1.15l-5.4 2.58c-1.78.88-3.57 1.76-5.35 2.66-1.76.92-3.58 1.8-5.22 2.85l-.27.17-.14-.27-3.87-7.79z" fill="#f59c00"/><path d="M246.06 294.38h53.56v17.18h-53.56z" fill="#fff"/><path d="M402.52 107.7a25.82 25.82 0 0013.53-4 25.98 25.98 0 10-24.98 1.52c.02 3.4.3 6.78.82 10.13l10.63-7.65zM179.04 202.16a26.3 26.3 0 00-21.77 41.05l-5.92 9.12 11.63-3.08a26.3 26.3 0 1016.06-47.09z" fill="#eff5eb"/><path d="M255.1 305.37h36.84M255.1 301.26h36.84" fill="none" stroke="#ccc" stroke-miterlimit="10"/><circle cx="320.57" cy="367.73" fill="none" r="4.55" stroke="#ccc" stroke-miterlimit="10"/><circle cx="313.88" cy="382.4" fill="none" r="4.55" stroke="#ccc" stroke-miterlimit="10"/><path d="M327.86 370.64a28.56 28.56 0 008.09 3.86M321.15 385.45a34.2 34.2 0 008.14 2.14" fill="none" stroke="#ccc" stroke-miterlimit="10"/><path d="M108.7 337.91l10.54-33.51h55.47l-15.57 33.51z" fill="#ccc"/><circle cx="140.71" cy="321.45" fill="#fff" r="4.31"/><path d="M94.93 335.24h15.83v2.67H94.93z" fill="#ccc"/><path d="M211.64 113.97a22.6 22.6 0 01-10.4 7.22c-.89.3-1.54-.1-1.87-.96" fill="#ffa9ab"/><script xmlns=""/></svg>